<svg width="162" height="49" viewBox="0 0 162 49" fill="none" xmlns="http://www.w3.org/2000/svg">
<path d="M12.2136 22.804V3.88H19.3956V21.246C19.3956 24.096 19.0916 26.224 18.4456 27.592C17.1536 30.29 14.3036 32.532 9.78162 32.532C4.30963 32.532 0.243625 29.15 0.243625 23.146V22.956H7.88163C7.99563 25.198 8.67963 26.224 10.0476 26.224C11.4536 26.224 12.2136 25.388 12.2136 22.804Z" fill="#ECECEC"/>
<path d="M32.6197 47.9999H25.5477L19.0837 37.7599H19.0197V47.9999H12.9717V24.3199H19.2589L19.0197 34.9759H19.0837L26 23.5H32.5L24.2677 36.1279L32.6197 47.9999Z" fill="#ECECEC"/>
<path d="M32.7321 21H23.5551V3.98H32.7321V6.257H26.0391V11.271H32.7321V13.548H26.0391V18.723H32.7321V21ZM44.5433 8.396H42.0593C42.0593 6.855 41.0703 5.935 39.6673 5.935C38.4713 5.935 37.3903 7.016 37.3903 8.258C37.3903 9.454 38.1953 10.144 39.8513 10.673C43.5313 11.846 44.8883 13.226 44.8883 16.17C44.8883 19.252 42.6803 21.322 39.6673 21.322C36.6313 21.322 34.4693 19.16 34.4233 15.963H36.9073C36.9303 17.803 38.0113 19.045 39.6673 19.045C41.3233 19.045 42.4043 17.849 42.4043 16.17C42.4043 14.928 41.8523 14.146 40.0353 13.525C35.8263 12.099 34.9063 10.719 34.9063 8.304C34.9063 5.705 37.0453 3.658 39.6673 3.658C42.4733 3.658 44.4973 5.429 44.5433 8.396ZM49.4658 21H46.9818V3.98H51.9268C55.5838 3.98 57.9068 5.797 57.9068 9.132C57.9068 12.467 55.6298 14.284 51.9498 14.284H49.4658V21ZM49.4658 12.007H51.9268C54.1118 12.007 55.4228 10.972 55.4228 9.132C55.4228 7.269 54.0658 6.257 51.9038 6.257H49.4658V12.007ZM69.0065 21H59.8295V3.98H69.0065V6.257H62.3135V11.271H69.0065V13.548H62.3135V18.723H69.0065V21ZM83.0257 21H79.9207L74.3087 13.111H74.2627V21H71.7787V3.98H77.2297C81.3237 3.98 83.1407 6.142 83.1407 9.638C83.1407 12.881 80.6567 14.583 78.2647 14.652L83.0257 21ZM74.2627 12.766H76.0797C78.9777 12.766 80.6567 11.639 80.6567 9.431C80.6567 7.476 79.0927 6.257 76.8847 6.257H74.2627V12.766Z" fill="#ECECEC"/>
<path d="M40.1655 39.045C44.1905 39.045 46.5365 35.641 46.5365 32.536C46.5365 29.017 43.8685 25.935 40.2805 25.935C35.6805 25.935 33.7945 29.891 33.7945 32.421C33.7945 35.848 36.2785 39.045 40.1655 39.045ZM49.0205 32.375C49.0205 37.527 45.0415 41.322 40.0275 41.322C35.3125 41.322 31.3105 37.274 31.3105 32.674C31.3105 27.453 35.3125 23.658 40.0965 23.658C45.1565 23.658 49.0205 27.637 49.0205 32.375ZM65.1367 41H62.5607L54.1427 27.844H54.0967V41H51.6127V23.98H54.3267L62.6067 36.929H62.6527V23.98H65.1367V41ZM82.4162 34.813H74.4812V32.536H85.2452C85.0842 38.194 80.8062 41.322 76.2752 41.322C71.6752 41.322 67.7422 37.32 67.7422 32.72C67.7422 27.2 71.9742 23.658 76.2752 23.658C79.5412 23.658 82.3472 25.199 84.0722 28.258H81.1742C79.7252 26.602 78.2762 25.935 76.3902 25.935C73.0782 25.935 70.2262 29.063 70.2262 32.421C70.2262 36.009 73.0552 39.045 76.4822 39.045C79.1732 39.045 81.3352 37.55 82.4162 34.813ZM96.5164 28.396H94.0324C94.0324 26.855 93.0434 25.935 91.6404 25.935C90.4444 25.935 89.3634 27.016 89.3634 28.258C89.3634 29.454 90.1684 30.144 91.8244 30.673C95.5044 31.846 96.8614 33.226 96.8614 36.17C96.8614 39.252 94.6534 41.322 91.6404 41.322C88.6044 41.322 86.4424 39.16 86.3964 35.963H88.8804C88.9034 37.803 89.9844 39.045 91.6404 39.045C93.2964 39.045 94.3774 37.849 94.3774 36.17C94.3774 34.928 93.8254 34.146 92.0084 33.525C87.7994 32.099 86.8794 30.719 86.8794 28.304C86.8794 25.705 89.0184 23.658 91.6404 23.658C94.4464 23.658 96.4704 25.429 96.5164 28.396ZM111.168 41H108.684V33.594H101.669V41H99.185V23.98H101.669V31.317H108.684V23.98H111.168V41ZM128.324 41H125.679L123.793 35.986H117.675L115.789 41H113.167L119.63 23.98H121.861L128.324 41ZM122.942 33.709L120.78 27.2H120.734L118.549 33.709H122.942ZM138.273 35.434V23.98H140.757V35.618C140.757 39.183 138.25 41.322 135.053 41.322C131.856 41.322 129.349 39.16 129.349 35.618V23.98H131.833V35.434C131.833 37.55 133.029 39.045 135.053 39.045C137.077 39.045 138.273 37.527 138.273 35.434ZM157.997 34.813H150.062V32.536H160.826C160.665 38.194 156.387 41.322 151.856 41.322C147.256 41.322 143.323 37.32 143.323 32.72C143.323 27.2 147.555 23.658 151.856 23.658C155.122 23.658 157.928 25.199 159.653 28.258H156.755C155.306 26.602 153.857 25.935 151.971 25.935C148.659 25.935 145.807 29.063 145.807 32.421C145.807 36.009 148.636 39.045 152.063 39.045C154.754 39.045 156.916 37.55 157.997 34.813Z" fill="#ECECEC"/>
</svg>
